<svg width="133" height="154" viewBox="0 0 133 154" fill="none" xmlns="http://www.w3.org/2000/svg">
<g clip-path="url(#clip0_2_3)">
<path d="M38.384 136.662V126.047H39.5311L43.9685 134.389V126.047H45.0386V136.662H43.8947L39.4634 128.323V136.662H38.384Z" fill="white"/>
<path d="M45.506 137.13H43.6117L39.9216 130.172V137.13H37.9258V125.59H39.8108L43.501 132.542V125.59H45.4937L45.506 137.13ZM44.1775 136.214H44.5835V126.506H44.4359V134.39L43.5656 134.604L39.2604 126.506H38.8514V136.214H38.999V128.324L39.8662 128.11L44.1775 136.214Z" fill="white"/>
<path d="M47.8372 136.662L51.0814 126.038H52.2869L55.7434 136.662H54.4702L53.4862 133.445H49.9529L49.0303 136.662H47.8372ZM50.2757 132.3H53.1449L52.2654 129.358C51.9948 128.464 51.7897 127.73 51.6503 127.156C51.5408 127.841 51.3888 128.518 51.1952 129.184L50.2757 132.3Z" fill="white"/>
<path d="M56.3765 137.13H54.1286L53.1445 133.914H50.3L49.3775 137.13H47.2249L50.749 125.59H52.631L56.3765 137.13ZM54.8112 136.214H55.1188L51.9606 126.506H51.4347L51.2533 127.093L52.1174 127.065C52.2435 127.624 52.4434 128.354 52.7078 129.237L53.7595 132.768H49.6573L50.7613 129.063C50.9204 128.517 51.0508 127.964 51.1518 127.404L48.4611 136.214H48.6763L49.5989 132.997H53.821L54.8112 136.214ZM50.8935 131.852H52.5295L51.8253 129.5L51.7115 129.121L51.6561 129.323L50.8935 131.852Z" fill="white"/>
<path d="M64.5042 132.943L65.6235 133.301C65.3898 134.455 64.9685 135.335 64.3596 135.94C64.0707 136.237 63.7234 136.471 63.3393 136.629C62.9552 136.786 62.5426 136.864 62.1271 136.856C61.3259 136.892 60.538 136.644 59.9038 136.157C59.2857 135.618 58.8346 134.916 58.603 134.132C58.2985 133.213 58.1469 132.252 58.154 131.285C58.1335 130.296 58.3047 129.313 58.6583 128.389C58.9411 127.637 59.4406 126.985 60.0944 126.514C60.6931 126.093 61.4092 125.869 62.1425 125.872C62.934 125.852 63.7013 126.144 64.2766 126.685C64.8969 127.31 65.3155 128.104 65.479 128.966L64.3781 129.293C64.2581 128.662 63.9631 128.077 63.5263 127.604C63.3385 127.429 63.1177 127.292 62.8766 127.201C62.6354 127.11 62.3787 127.068 62.1209 127.076C61.5222 127.057 60.9391 127.267 60.4911 127.662C60.0343 128.086 59.7134 128.634 59.5686 129.238C59.3893 129.904 59.2994 130.59 59.301 131.279C59.285 132.078 59.3887 132.874 59.6085 133.643C59.7644 134.237 60.107 134.767 60.5864 135.155C60.9954 135.476 61.5012 135.652 62.0225 135.653C62.321 135.658 62.6171 135.599 62.8912 135.482C63.1653 135.365 63.4111 135.191 63.6124 134.972C64.107 134.399 64.4176 133.693 64.5042 132.943Z" fill="white"/>
<path d="M62.1273 137.309C61.2195 137.345 60.3281 137.061 59.6119 136.505C58.9268 135.912 58.4247 135.137 58.1635 134.272C57.8459 133.306 57.687 132.295 57.693 131.279C57.6742 130.236 57.8569 129.199 58.2311 128.224C58.5463 127.39 59.1026 126.666 59.8302 126.144C60.507 125.671 61.315 125.418 62.1427 125.42C62.5947 125.408 63.0447 125.485 63.4668 125.646C63.889 125.807 64.275 126.049 64.6028 126.358C65.2905 127.044 65.7563 127.918 65.9405 128.869L66.0389 129.287L64.0616 129.874L63.9447 129.409C63.8414 128.864 63.5905 128.357 63.219 127.943C63.0743 127.808 62.9037 127.702 62.7173 127.633C62.5309 127.563 62.3324 127.532 62.1335 127.54C61.6495 127.521 61.1768 127.688 60.8142 128.007C60.4267 128.374 60.1543 128.844 60.0301 129.361C59.6826 130.726 59.6985 132.157 60.0762 133.515C60.2046 134.016 60.4899 134.465 60.8911 134.795C61.2186 135.057 61.6266 135.2 62.0474 135.201C62.2831 135.206 62.517 135.16 62.7334 135.067C62.9499 134.975 63.1438 134.837 63.302 134.663C63.7259 134.155 63.991 133.535 64.0647 132.879L64.1539 132.36L66.1681 133.002L66.0881 133.402C65.9187 134.475 65.4353 135.474 64.6982 136.276C64.3635 136.614 63.9627 136.88 63.5205 137.057C63.0783 137.235 62.6042 137.32 62.1273 137.309ZM62.1273 126.312C61.4884 126.307 60.8641 126.503 60.3437 126.871C59.7635 127.293 59.3208 127.875 59.0706 128.545C58.7404 129.414 58.5807 130.338 58.6001 131.267C58.5946 132.185 58.7379 133.097 59.0245 133.97C59.2301 134.671 59.6309 135.3 60.1808 135.784C60.7327 136.205 61.4174 136.416 62.112 136.38C62.4664 136.388 62.8187 136.323 63.1468 136.19C63.4749 136.056 63.7717 135.857 64.0186 135.604C64.5406 135.039 64.9015 134.347 65.0641 133.597L64.8365 133.524C64.695 134.173 64.3879 134.774 63.9447 135.271C63.7002 135.535 63.4023 135.745 63.0706 135.886C62.7388 136.028 62.3807 136.098 62.0197 136.093C61.3971 136.091 60.793 135.883 60.3038 135.5C59.749 135.054 59.3507 134.444 59.166 133.759C58.9303 132.947 58.8174 132.105 58.8308 131.261C58.8297 130.531 58.9248 129.805 59.1137 129.101C59.2795 128.412 59.6464 127.787 60.1685 127.305C60.6999 126.833 61.393 126.58 62.1058 126.599C62.7444 126.582 63.3637 126.817 63.8279 127.253C64.227 127.66 64.5185 128.158 64.6766 128.704L64.9042 128.637C64.7315 128.017 64.3998 127.453 63.9417 126.999C63.4553 126.547 62.8086 126.304 62.1427 126.324L62.1273 126.312Z" fill="white"/>
<path d="M74.8707 132.943L75.9869 133.301C75.7532 134.455 75.3319 135.335 74.723 135.94C74.4341 136.237 74.0868 136.471 73.7027 136.629C73.3186 136.786 72.906 136.864 72.4905 136.856C71.6893 136.892 70.9014 136.644 70.2672 136.157C69.6491 135.618 69.198 134.916 68.9664 134.132C68.663 133.213 68.5124 132.252 68.5205 131.285C68.4982 130.296 68.6695 129.313 69.0248 128.389C69.3053 127.637 69.804 126.984 70.4578 126.514C71.0565 126.093 71.7726 125.869 72.5059 125.872C73.2974 125.852 74.0647 126.144 74.64 126.685C75.2613 127.309 75.6801 128.104 75.8424 128.966L74.7415 129.293C74.6215 128.662 74.3265 128.077 73.8897 127.604C73.7019 127.429 73.4811 127.292 73.24 127.201C72.9988 127.11 72.7421 127.068 72.4843 127.076C71.8856 127.057 71.3025 127.267 70.8545 127.662C70.3977 128.086 70.0768 128.634 69.932 129.238C69.7527 129.904 69.6628 130.59 69.6644 131.279C69.6484 132.078 69.7521 132.874 69.9719 133.643C70.129 134.237 70.4713 134.766 70.9498 135.155C71.3588 135.476 71.8646 135.652 72.3859 135.653C72.6844 135.658 72.9805 135.599 73.2546 135.482C73.5287 135.365 73.7745 135.191 73.9758 134.972C74.4702 134.399 74.7817 133.693 74.8707 132.943Z" fill="white"/>
<path d="M72.4904 137.308C71.5825 137.345 70.6911 137.06 69.9749 136.505C69.2898 135.911 68.7877 135.137 68.5265 134.272C68.21 133.306 68.0521 132.295 68.0591 131.279C68.0393 130.236 68.2209 129.199 68.5941 128.224C68.9094 127.389 69.4669 126.665 70.1963 126.144C70.8722 125.671 71.6791 125.418 72.5057 125.42C73.4184 125.397 74.303 125.734 74.9658 126.358C75.6521 127.044 76.1168 127.919 76.3005 128.869L76.3989 129.287L74.4216 129.874L74.3047 129.409C74.2022 128.865 73.9524 128.358 73.582 127.943C73.4366 127.808 73.2654 127.702 73.0785 127.633C72.8916 127.564 72.6927 127.532 72.4934 127.54C72.0095 127.521 71.5369 127.688 71.1742 128.007C70.7866 128.374 70.5143 128.844 70.39 129.36C70.0426 130.726 70.0585 132.157 70.4362 133.515C70.5645 134.016 70.8499 134.464 71.2511 134.795C71.5786 135.057 71.9866 135.2 72.4073 135.201C72.643 135.206 72.8769 135.16 73.0934 135.067C73.3098 134.975 73.5037 134.837 73.662 134.663C74.0858 134.155 74.3509 133.535 74.4246 132.879L74.5138 132.36L76.5157 132.995L76.4327 133.396C76.2633 134.468 75.7799 135.468 75.0427 136.27C74.7107 136.606 74.3132 136.872 73.8743 137.051C73.4354 137.229 72.9645 137.317 72.4904 137.308ZM72.4904 126.312C71.8514 126.307 71.2271 126.503 70.7068 126.871C70.1265 127.293 69.6838 127.875 69.4337 128.545C69.1046 129.414 68.9459 130.338 68.9662 131.267C68.9598 132.184 69.102 133.097 69.3875 133.97C69.593 134.672 69.9951 135.301 70.5469 135.784C71.0975 136.205 71.7813 136.416 72.475 136.38C72.8295 136.388 73.1819 136.324 73.5101 136.19C73.8382 136.057 74.1349 135.857 74.3816 135.604C74.9036 135.039 75.2645 134.347 75.4271 133.597L75.1996 133.524C75.0581 134.173 74.751 134.774 74.3078 135.271C74.0632 135.535 73.7653 135.745 73.4336 135.886C73.1018 136.028 72.7438 136.098 72.3827 136.093C71.7602 136.091 71.1561 135.883 70.6668 135.5C70.112 135.054 69.7138 134.444 69.529 133.759C69.2934 132.947 69.1804 132.105 69.1938 131.26C69.1927 130.531 69.2878 129.805 69.4767 129.101C69.6425 128.412 70.0095 127.787 70.5315 127.305C71.0629 126.832 71.756 126.58 72.4688 126.599C73.1074 126.582 73.7267 126.817 74.1909 127.253C74.59 127.659 74.8816 128.158 75.0397 128.704L75.2672 128.637C75.0955 128.017 74.7649 127.453 74.3078 126.999C73.8235 126.55 73.1807 126.307 72.518 126.324L72.4904 126.312Z" fill="white"/>
<path d="M84.7479 126.047H85.8673V132.184C85.8937 133.041 85.7964 133.898 85.5782 134.728C85.4008 135.332 85.0373 135.866 84.5388 136.255C83.9686 136.672 83.2713 136.88 82.5646 136.845C81.8802 136.874 81.2032 136.695 80.6241 136.332C80.1063 135.969 79.7262 135.444 79.5448 134.841C79.3009 133.975 79.192 133.076 79.2219 132.177V126.047H80.3412V132.177C80.3149 132.864 80.3832 133.55 80.5442 134.218C80.6601 134.623 80.9077 134.978 81.2484 135.229C81.6097 135.475 82.0408 135.599 82.4785 135.583C83.3026 135.583 83.8869 135.348 84.2374 134.881C84.588 134.413 84.7602 133.512 84.7602 132.177L84.7479 126.047Z" fill="white"/>
<path d="M82.5647 137.31C81.7868 137.339 81.0187 137.131 80.3628 136.715C79.7611 136.297 79.319 135.69 79.1082 134.992C78.8462 134.08 78.729 133.133 78.7607 132.185V125.59H80.8026V132.179C80.7767 132.818 80.8388 133.459 80.9871 134.082C81.0709 134.392 81.2572 134.665 81.516 134.857C81.7958 135.045 82.1288 135.14 82.4663 135.126C83.1397 135.126 83.5948 134.958 83.8531 134.61C84.053 134.344 84.2867 133.694 84.2867 132.166V125.59H86.3287V132.185C86.3553 133.088 86.2518 133.99 86.0211 134.864C85.812 135.601 85.3552 136.246 84.7265 136.691C84.0978 137.135 83.335 137.353 82.5647 137.307V137.31ZM79.6832 126.506V132.185C79.6564 133.035 79.7601 133.885 79.9907 134.705C80.1379 135.213 80.4559 135.656 80.8918 135.96C81.3946 136.27 81.9799 136.421 82.5708 136.394C83.1735 136.425 83.7689 136.252 84.2591 135.902C84.6863 135.571 84.9964 135.113 85.1447 134.595C85.3476 133.808 85.4376 132.997 85.4123 132.185V126.506H85.2154V132.179C85.2154 133.626 85.0156 134.601 84.6004 135.154C84.1853 135.707 83.4442 136.043 82.4724 136.043C81.942 136.055 81.4212 135.901 80.984 135.603C80.5616 135.294 80.2545 134.854 80.1107 134.353C79.9339 133.642 79.8583 132.91 79.8862 132.179V126.506H79.6832Z" fill="white"/>
<path d="M93.5213 132.503V131.257H97.1008V135.198C96.6095 135.705 96.0344 136.126 95.4002 136.441C94.8409 136.712 94.2269 136.854 93.6043 136.856C92.7995 136.864 92.0109 136.631 91.341 136.187C90.6404 135.713 90.1037 135.035 89.8035 134.248C89.4461 133.346 89.2696 132.385 89.2838 131.416C89.2753 130.427 89.4505 129.446 89.8004 128.52C90.0704 127.717 90.5865 127.017 91.2765 126.52C91.9346 126.08 92.7129 125.852 93.5059 125.866C94.0804 125.858 94.6485 125.986 95.1634 126.239C95.6406 126.472 96.0431 126.833 96.3259 127.28C96.6406 127.817 96.8572 128.406 96.9655 129.018L95.9568 129.366C95.8651 128.919 95.7054 128.489 95.4833 128.09C95.2873 127.774 95.0088 127.518 94.6776 127.347C94.3186 127.159 93.9179 127.064 93.5121 127.069C93.0517 127.061 92.5965 127.166 92.1867 127.375C91.8294 127.557 91.5207 127.821 91.2857 128.145C91.0571 128.467 90.8778 128.821 90.7537 129.195C90.5335 129.887 90.4245 130.608 90.4308 131.334C90.4078 132.143 90.5393 132.949 90.8183 133.71C91.0194 134.264 91.388 134.742 91.8736 135.08C92.3592 135.417 92.9379 135.597 93.5305 135.595C94.0246 135.592 94.5109 135.472 94.9482 135.243C95.3405 135.058 95.6957 134.803 95.9968 134.492V132.516L93.5213 132.503Z" fill="white"/>
<path d="M93.6045 137.309C92.7089 137.316 91.8317 137.056 91.086 136.563C90.3107 136.04 89.7151 135.294 89.3793 134.425C89.0015 133.468 88.8136 132.448 88.8257 131.42C88.8187 130.377 89.0042 129.341 89.3731 128.365C89.6793 127.474 90.2576 126.7 91.0276 126.15C91.7632 125.662 92.6308 125.408 93.5153 125.42C94.1623 125.413 94.8018 125.558 95.382 125.842C95.932 126.115 96.3966 126.532 96.7258 127.048C97.07 127.633 97.3074 128.273 97.4269 128.939L97.5069 129.333L95.6341 129.978L95.5173 129.483C95.4364 129.083 95.2954 128.698 95.099 128.341C94.9447 128.096 94.727 127.896 94.4686 127.763C94.1767 127.611 93.851 127.535 93.5215 127.54C93.1371 127.529 92.7558 127.612 92.4114 127.782C92.1167 127.93 91.8625 128.147 91.6703 128.414C91.469 128.695 91.3105 129.004 91.1998 129.33C90.9936 129.975 90.8898 130.648 90.8922 131.325C90.8704 132.076 90.9904 132.824 91.2459 133.53C91.413 133.999 91.7226 134.405 92.132 134.691C92.5413 134.977 93.0301 135.13 93.5307 135.128C93.9525 135.124 94.3671 135.019 94.7393 134.822C95.0285 134.684 95.2966 134.506 95.5357 134.294V132.962H93.0602V130.799H97.5622V135.381L97.43 135.513C96.9012 136.058 96.2824 136.51 95.6003 136.848C94.9783 137.148 94.2962 137.306 93.6045 137.309ZM93.5153 126.312C92.8142 126.296 92.1254 126.497 91.5442 126.887C90.9338 127.333 90.4764 127.954 90.2342 128.667C89.9051 129.54 89.7404 130.466 89.7483 131.398C89.7353 132.308 89.9003 133.212 90.2342 134.059C90.4968 134.761 90.9728 135.366 91.5965 135.788C92.1903 136.182 92.8903 136.388 93.6045 136.38C94.1581 136.378 94.7038 136.25 95.2005 136.008C95.7325 135.747 96.2185 135.402 96.6397 134.987V131.71H93.9828V132.04H96.4675V134.651L96.3506 134.78C96.0121 135.134 95.6107 135.422 95.1667 135.632C94.6316 135.916 94.03 136.054 93.4236 136.031C92.8173 136.007 92.228 135.824 91.7164 135.5C91.1123 135.109 90.6509 134.535 90.4002 133.863C90.0985 133.048 89.9556 132.184 89.9789 131.316C89.9733 130.543 90.0895 129.774 90.3233 129.037C90.4615 128.617 90.6626 128.221 90.9199 127.861C91.1967 127.477 91.56 127.164 91.9809 126.945C92.4575 126.707 92.9853 126.589 93.5184 126.599C94.0003 126.595 94.4757 126.71 94.9022 126.932C95.3077 127.144 95.6478 127.46 95.8863 127.849C96.0533 128.138 96.1855 128.445 96.2799 128.765L96.4275 128.713C96.326 128.292 96.1623 127.889 95.9416 127.516C95.7018 127.141 95.3623 126.838 94.9607 126.642C94.5108 126.425 94.0156 126.316 93.5153 126.325V126.312Z" fill="white"/>
<path d="M25.8958 153.364V143.993H23.1282V142.74H29.8228V143.993H27.0059V153.361L25.8958 153.364Z" fill="white"/>
<path d="M27.4734 153.822H25.4346V144.454H22.667V142.285H30.2841V144.454H27.4888L27.4734 153.822ZM26.3572 152.906H26.5509V143.538H29.3462V143.202H23.5742V143.538H26.3418L26.3572 152.906Z" fill="white"/>
<path d="M32.8303 153.363V142.742H33.9497V147.101H38.3379V142.742H39.4573V153.363H38.3379V148.357H33.9497V153.363H32.8303Z" fill="white"/>
<path d="M39.9217 153.822H37.8798V148.816H34.411V153.822H32.3691V142.285H34.411V146.644H37.8767V142.285H39.9217V153.822ZM38.8023 152.906H38.9992V143.202H38.8023V147.56H33.4885V143.202H33.2917V152.906H33.4885V147.899H38.7993L38.8023 152.906Z" fill="white"/>
<path d="M43.1814 153.363V142.742H49.2917V143.992H44.3007V147.245H48.975V148.491H44.3007V152.108H49.4854V153.36L43.1814 153.363Z" fill="white"/>
<path d="M49.9466 153.822H42.72V142.285H49.7621V144.454H44.7619V146.791H49.4361V148.953H44.7619V151.654H49.9466V153.822ZM43.6425 152.906H49.024V152.57H43.8393V148.037H48.5135V147.707H43.8393V143.538H48.8395V143.202H43.6425V152.906Z" fill="white"/>
<path d="M61.9456 149.184V147.962H65.522V151.903C65.0318 152.41 64.4577 152.831 63.8246 153.146C63.2643 153.418 62.6492 153.56 62.0256 153.561C61.2207 153.569 60.4322 153.335 59.7623 152.892C59.062 152.417 58.5253 151.74 58.2247 150.953C57.8686 150.051 57.6921 149.089 57.705 148.121C57.6969 147.132 57.872 146.151 58.2216 145.225C58.4956 144.423 59.0148 143.726 59.7069 143.231C60.3648 142.79 61.1433 142.562 61.9364 142.577C62.5108 142.569 63.0787 142.697 63.5939 142.95C64.0697 143.184 64.4709 143.544 64.7532 143.991C65.0695 144.528 65.2861 145.116 65.3929 145.729L64.3842 146.077C64.2934 145.631 64.1347 145.2 63.9137 144.801C63.7166 144.485 63.4371 144.229 63.105 144.058C62.7471 143.87 62.3474 143.775 61.9426 143.78C61.4822 143.772 61.027 143.877 60.6172 144.086C60.2587 144.269 59.9489 144.534 59.7131 144.859C59.4833 145.18 59.3039 145.534 59.1811 145.909C58.9656 146.602 58.8618 147.323 58.8736 148.048C58.8493 148.857 58.9819 149.664 59.2641 150.424C59.4651 150.977 59.8332 151.455 60.3182 151.793C60.8032 152.13 61.3812 152.31 61.9733 152.309C62.4674 152.307 62.9537 152.186 63.391 151.958C63.7829 151.773 64.1381 151.519 64.4396 151.209V149.184H61.9456Z" fill="white"/>
<path d="M62.0257 154.001C61.131 154.009 60.2547 153.749 59.5102 153.256C58.7347 152.732 58.1383 151.986 57.8004 151.118C57.4227 150.161 57.2347 149.14 57.2469 148.112C57.2403 147.069 57.4259 146.034 57.7943 145.057C58.1016 144.168 58.6797 143.395 59.4487 142.846C60.1846 142.356 61.0535 142.1 61.9396 142.113C62.5859 142.105 63.2247 142.251 63.8031 142.537C64.3549 142.807 64.8203 143.223 65.1469 143.741C65.492 144.325 65.7294 144.965 65.8481 145.632L65.928 146.026L64.0553 146.67L63.9384 146.175C63.8589 145.775 63.7178 145.39 63.5202 145.033C63.3681 144.787 63.1497 144.588 62.8898 144.459C62.5996 144.305 62.2746 144.227 61.9457 144.233C61.5613 144.221 61.1799 144.304 60.8356 144.474C60.541 144.622 60.2867 144.839 60.0945 145.106C59.8906 145.386 59.7318 145.695 59.624 146.023C59.4161 146.666 59.3123 147.338 59.3165 148.014C59.294 148.765 59.415 149.513 59.6732 150.22C59.8401 150.688 60.1493 151.093 60.558 151.379C60.9667 151.665 61.4549 151.818 61.9549 151.817C62.3767 151.814 62.7913 151.709 63.1635 151.512C63.4523 151.374 63.7204 151.197 63.9599 150.986V149.651H61.4783V147.489H65.9772V152.071L65.845 152.205C65.3159 152.749 64.6971 153.2 64.0153 153.537C63.3956 153.838 62.7156 153.997 62.0257 154.001ZM61.9396 143.005C61.2387 142.99 60.5502 143.19 59.9684 143.579C59.3556 144.023 58.8968 144.645 58.6553 145.36C58.3277 146.233 58.1631 147.159 58.1694 148.091C58.1564 149 58.3214 149.904 58.6553 150.751C58.9219 151.452 59.3972 152.055 60.0176 152.48C60.611 152.875 61.3113 153.082 62.0257 153.073C62.5797 153.069 63.1261 152.943 63.6247 152.703C64.1547 152.439 64.6394 152.094 65.0608 151.68V148.402H62.407V148.732H64.8886V151.344L64.7718 151.472C64.4353 151.828 64.0348 152.118 63.5909 152.327C63.055 152.611 62.4527 152.748 61.8459 152.724C61.2391 152.701 60.6495 152.517 60.1375 152.193C59.536 151.801 59.076 151.228 58.8244 150.559C58.5204 149.743 58.3764 148.877 58.4001 148.008C58.3942 147.235 58.5115 146.466 58.7476 145.729C58.8859 145.311 59.0859 144.916 59.3411 144.556C59.6175 144.171 59.9823 143.857 60.4051 143.64C60.8816 143.402 61.4095 143.284 61.9426 143.295C62.4236 143.29 62.898 143.405 63.3234 143.628C63.7288 143.839 64.0689 144.156 64.3074 144.544C64.4758 144.833 64.6079 145.14 64.701 145.461L64.8517 145.412C64.751 144.989 64.5862 144.584 64.3628 144.211C64.125 143.835 63.7863 143.533 63.3849 143.338C62.9352 143.119 62.44 143.01 61.9396 143.017V143.005Z" fill="white"/>
<path d="M68.0837 153.363L71.328 142.742H72.5335L75.99 153.363H74.7168L73.7482 150.147H70.1994L69.2769 153.363H68.0837ZM70.5223 149.001H73.3853L72.5181 146.059C72.2495 145.165 72.0507 144.431 71.9215 143.857C71.8124 144.542 71.6594 145.22 71.4633 145.885L70.5223 149.001Z" fill="white"/>
<path d="M76.6234 153.822H74.3632L73.3761 150.606H70.5346L69.6121 153.822H67.4595L70.9805 142.285H72.8625L76.6234 153.822ZM75.0582 152.906H75.3657L72.2106 143.202H71.6817L71.5033 143.785L72.3674 143.757C72.4935 144.32 72.6934 145.05 72.9578 145.929L74.0157 149.46H69.9042L71.0082 145.755C71.1667 145.209 71.296 144.656 71.3957 144.097L68.7049 152.906H68.9232L69.8458 149.689H74.068L75.0582 152.906ZM71.1404 148.544H72.7672L72.063 146.192C72.023 146.064 71.9861 145.935 71.9492 145.813L71.8938 146.015L71.1404 148.544Z" fill="white"/>
<path d="M78.6899 153.363V142.742H80.372L82.3709 150.263C82.5554 150.962 82.6784 151.484 82.7768 151.833C82.8731 151.448 83.0228 150.881 83.2258 150.131L85.2461 142.742H86.753V153.363H85.6736V144.471L83.2135 153.363H82.2048L79.7601 144.321V153.363H78.6899Z" fill="white"/>
<path d="M87.2141 153.822H85.2122V147.875L83.57 153.822H81.8572L80.2274 147.796V153.822H78.2285V142.285H80.7286L82.7797 150.007L84.8954 142.285H87.2141V153.822ZM86.1347 152.906H86.2916V143.202H85.5996L85.2921 144.359L86.1439 144.472L86.1347 152.906ZM82.5645 152.906H82.872L83.1364 151.944H82.3277C82.2416 151.596 82.1093 151.076 81.9248 150.38L80.0183 143.202H79.1511V152.906H79.3048V144.323L80.212 144.203L82.5645 152.906Z" fill="white"/>
<path d="M90.354 153.364V142.743H93.5214C94.0515 142.717 94.5798 142.822 95.059 143.049C95.4628 143.276 95.7853 143.623 95.9815 144.041C96.2004 144.477 96.3141 144.957 96.3136 145.443C96.3123 145.889 96.207 146.328 96.0061 146.726C95.8101 147.127 95.5028 147.464 95.1205 147.698C95.6143 147.872 96.0311 148.212 96.2983 148.66C96.5816 149.149 96.7242 149.706 96.7103 150.27C96.7146 150.743 96.6301 151.214 96.4612 151.656C96.3308 152.027 96.1209 152.364 95.8462 152.646C95.5826 152.888 95.2672 153.068 94.9237 153.172C94.4815 153.3 94.022 153.36 93.5614 153.349L90.354 153.364ZM91.4703 147.206H93.2969C93.6571 147.223 94.0178 147.181 94.364 147.081C94.635 146.987 94.863 146.799 95.0067 146.552C95.1585 146.271 95.2327 145.955 95.222 145.636C95.2283 145.314 95.1599 144.995 95.0221 144.704C94.9066 144.455 94.6999 144.258 94.4439 144.154C94.0273 144.032 93.5925 143.981 93.1585 144.005H91.4703V147.206ZM91.4703 152.112H93.5737C93.828 152.12 94.0824 152.102 94.3332 152.06C94.5689 152.007 94.7897 151.903 94.979 151.754C95.1698 151.597 95.317 151.394 95.4065 151.165C95.5221 150.881 95.5786 150.576 95.5725 150.27C95.581 149.911 95.4986 149.556 95.3327 149.237C95.1859 148.962 94.948 148.747 94.6592 148.626C94.264 148.491 93.8467 148.431 93.4291 148.449H91.4764L91.4703 152.112Z" fill="white"/>
<path d="M93.5706 153.822H89.8804V142.285H93.5091C94.1242 142.26 94.7357 142.391 95.2865 142.664C95.7719 142.936 96.1592 143.353 96.3936 143.855C96.643 144.354 96.7725 144.903 96.7718 145.459C96.7743 145.972 96.6575 146.479 96.4305 146.94C96.3088 147.194 96.148 147.427 95.9538 147.631C96.2578 147.846 96.5133 148.122 96.7041 148.44C97.0277 148.997 97.1925 149.63 97.1808 150.273C97.1849 150.803 97.089 151.33 96.8979 151.825C96.7426 152.259 96.4927 152.655 96.166 152.982C95.8512 153.272 95.4749 153.487 95.0651 153.612C94.5806 153.757 94.0766 153.828 93.5706 153.822ZM90.8029 152.906H93.5706C93.9862 152.917 94.4011 152.865 94.8006 152.75C95.0795 152.668 95.3359 152.523 95.551 152.329C95.7774 152.094 95.9505 151.814 96.0584 151.507C96.2062 151.117 96.2802 150.702 96.2767 150.285C96.2897 149.804 96.1695 149.329 95.9292 148.911C95.7165 148.552 95.3833 148.279 94.9882 148.141L94.1087 147.817L94.8467 147.359C94.7486 147.418 94.6457 147.469 94.5392 147.512C94.1413 147.633 93.725 147.685 93.3092 147.664H91.0213V143.538H93.1739C93.6666 143.512 94.1601 143.573 94.6315 143.718C94.9916 143.865 95.2833 144.141 95.4495 144.491C95.6207 144.845 95.706 145.234 95.6986 145.627C95.7107 146.03 95.6152 146.43 95.4218 146.785C95.2896 147.01 95.1051 147.201 94.8837 147.341H94.9113C95.2221 147.154 95.4711 146.881 95.6278 146.556C95.7955 146.22 95.8808 145.849 95.8769 145.474C95.8781 145.058 95.7812 144.647 95.594 144.274C95.4408 143.94 95.1858 143.662 94.8652 143.48C94.4509 143.285 93.9946 143.195 93.5367 143.217H90.8306L90.8029 152.906ZM91.9284 146.742H93.2938C93.5974 146.762 93.9022 146.73 94.1948 146.647C94.3672 146.591 94.5128 146.473 94.6038 146.317C94.715 146.102 94.768 145.862 94.7576 145.621C94.7639 145.37 94.7112 145.121 94.6038 144.894C94.5726 144.82 94.5269 144.752 94.4693 144.696C94.4118 144.639 94.3436 144.594 94.2686 144.564C93.9068 144.463 93.5304 144.424 93.1554 144.448H91.9253L91.9284 146.742ZM93.5706 152.564H91.0059V147.982H93.4291C93.9101 147.962 94.3904 148.035 94.8437 148.196C95.2299 148.356 95.5475 148.646 95.7416 149.014C95.9505 149.399 96.0564 149.83 96.0491 150.267C96.0552 150.635 95.9861 151.001 95.8462 151.342C95.7252 151.642 95.5307 151.906 95.2803 152.112C95.0364 152.297 94.7537 152.425 94.4531 152.488C94.1628 152.547 93.8669 152.574 93.5706 152.57V152.564ZM91.9284 151.648H93.5706C93.7897 151.657 94.0092 151.643 94.2256 151.608C94.3946 151.575 94.5542 151.505 94.693 151.403C94.8213 151.293 94.9196 151.152 94.979 150.994C95.0696 150.767 95.1135 150.524 95.1081 150.279C95.1167 149.997 95.0532 149.718 94.9236 149.467C94.8302 149.281 94.6732 149.135 94.4808 149.054C94.1397 148.939 93.7795 148.89 93.4199 148.911H91.9284V151.648Z" fill="white"/>
<path d="M100.299 153.363V142.742H101.425V153.363H100.299Z" fill="white"/>
<path d="M101.877 153.822H99.8379V142.285H101.877V153.822ZM100.76 152.906H100.954V143.202H100.76V152.906Z" fill="white"/>
<path d="M104.3 153.363L107.544 142.742H108.75L112.206 153.363H110.933L109.949 150.147H106.416L105.493 153.363H104.3ZM106.738 149.001H109.601L108.719 146.059C108.45 145.165 108.251 144.431 108.122 143.857C108.013 144.542 107.861 145.219 107.667 145.885L106.738 149.001Z" fill="white"/>
<path d="M112.839 153.822H110.591L109.604 150.606H106.763L105.84 153.822H103.688L107.212 142.285H109.094L112.839 153.822ZM111.274 152.906H111.582L108.423 143.202H107.882L107.704 143.785L108.568 143.757C108.694 144.32 108.894 145.05 109.158 145.929L110.216 149.46H106.12L107.224 145.755C107.383 145.209 107.512 144.656 107.612 144.097L104.921 152.906H105.139L106.062 149.689H110.284L111.274 152.906ZM107.356 148.544H108.983L108.279 146.192C108.239 146.064 108.202 145.935 108.165 145.813L108.11 146.015L107.356 148.544Z" fill="white"/>
<path d="M56.8963 120.999H27.0213L34.6661 107.076C34.765 106.9 34.8275 106.705 34.8501 106.504C34.8726 106.303 34.8548 106.1 34.7976 105.906C34.7404 105.711 34.6449 105.531 34.5168 105.373C34.3886 105.216 34.2303 105.086 34.0511 104.99C16.6458 95.8813 10.5447 83.5591 9.47759 81.0971C9.36735 80.8504 9.27185 80.5974 9.1916 80.3396C5.39687 68.4633 6.73148 61.7249 7.25426 59.8738C7.31772 59.6351 7.4299 59.4118 7.58384 59.2179C7.73778 59.0241 7.93018 58.8637 8.14913 58.7467C9.05322 58.2793 10.1449 58.5512 11.1628 59.0796C13.0937 60.1194 14.5311 61.8768 15.1605 63.967C16.8364 69.3461 18.58 75.0765 19.2688 77.3461C19.5516 78.3238 20.0191 79.2392 20.6465 80.0433C24.8656 85.3216 35.9761 88.9688 38.6115 89.7782C38.7365 89.8175 38.8696 89.8236 38.9977 89.7961C39.1258 89.7686 39.2444 89.7084 39.3419 89.6214C39.4395 89.5345 39.5124 89.4237 39.5537 89.3001C39.5949 89.1766 39.603 89.0445 39.5771 88.9168C39.0943 86.7175 33.5775 82.5266 33.5775 82.5266C31.0313 80.8436 30.8867 79.4965 31.1666 78.6993C31.2545 78.4571 31.4098 78.2447 31.6145 78.0868C31.8192 77.9289 32.0649 77.832 32.3228 77.8073C37.7136 77.23 42.9136 80.6725 42.9136 80.6725C51.318 87.1666 58.1049 89.5766 60.6541 94.5831C63.228 99.672 56.3551 121.002 56.8963 120.999Z" fill="white"/>
<path d="M78.5947 120.999H108.47L100.825 107.076C100.727 106.899 100.665 106.703 100.643 106.502C100.622 106.3 100.641 106.096 100.7 105.902C100.759 105.708 100.856 105.527 100.985 105.371C101.115 105.214 101.275 105.085 101.455 104.99C118.845 95.8813 124.946 83.5591 126.029 81.0971C126.137 80.8498 126.231 80.5969 126.312 80.3396C130.109 68.4633 128.772 61.7249 128.249 59.8738C128.186 59.6351 128.073 59.4118 127.919 59.2179C127.766 59.0241 127.573 58.8637 127.354 58.7467C126.45 58.2793 125.358 58.5512 124.341 59.0796C122.41 60.1194 120.972 61.8768 120.343 63.967C118.667 69.3461 116.923 75.0765 116.234 77.3461C115.954 78.3243 115.488 79.2399 114.86 80.0433C110.638 85.3216 99.5303 88.9688 96.8918 89.7782C96.767 89.8177 96.6339 89.8241 96.5058 89.7966C96.3777 89.7692 96.2591 89.7089 96.1618 89.6218C96.0644 89.5347 95.9917 89.4238 95.951 89.3001C95.9102 89.1764 95.9027 89.0443 95.9293 88.9168C96.409 86.7175 101.926 82.5266 101.926 82.5266C104.472 80.8436 104.617 79.4965 104.337 78.6992C104.249 78.4567 104.094 78.2439 103.889 78.0859C103.685 77.9279 103.439 77.8312 103.18 77.8073C97.7897 77.23 92.5897 80.6725 92.5897 80.6725C84.1853 87.1665 77.3985 89.5766 74.8492 94.5831C72.263 99.672 79.1359 121.002 78.5947 120.999Z" fill="white"/>
<path d="M68.1022 80.8037C53.4246 80.8037 39.6172 78.1798 29.2232 73.4147C18.6755 68.5793 12.8604 62.0944 12.8604 55.1544C12.8604 48.2143 18.6693 41.7295 29.217 36.8941C39.611 32.1289 53.4184 29.502 68.0961 29.502C82.7738 29.502 96.5781 32.1289 106.975 36.8941C117.523 41.7295 123.329 48.2143 123.329 55.1544C123.329 62.0944 117.523 68.5945 106.975 73.4147C96.5842 78.1798 82.7768 80.8037 68.1022 80.8037ZM68.1022 30.7238C38.3226 30.7238 14.0966 41.6836 14.0966 55.1605C14.0966 68.6373 38.3226 79.5972 68.1022 79.5972C97.8819 79.5972 122.105 68.6404 122.105 55.1605C122.105 41.6806 97.8789 30.7238 68.1022 30.7238Z" fill="white"/>
<path d="M117.351 45.1791H18.3956C18.2733 45.1791 18.1559 45.1308 18.0694 45.0449C17.9829 44.959 17.9343 44.8424 17.9343 44.7209C17.9343 44.5994 17.9829 44.4828 18.0694 44.3969C18.1559 44.311 18.2733 44.2627 18.3956 44.2627H117.351C117.473 44.2627 117.59 44.311 117.677 44.3969C117.763 44.4828 117.812 44.5994 117.812 44.7209C117.812 44.8424 117.763 44.959 117.677 45.0449C117.59 45.1308 117.473 45.1791 117.351 45.1791Z" fill="white"/>
<path d="M122.486 57.6976H14.1827C14.0604 57.6976 13.943 57.6494 13.8565 57.5634C13.77 57.4775 13.7214 57.361 13.7214 57.2394C13.7214 57.1179 13.77 57.0014 13.8565 56.9155C13.943 56.8295 14.0604 56.7812 14.1827 56.7812H122.486C122.609 56.7812 122.726 56.8295 122.812 56.9155C122.899 57.0014 122.948 57.1179 122.948 57.2394C122.948 57.361 122.899 57.4775 122.812 57.5634C122.726 57.6494 122.609 57.6976 122.486 57.6976Z" fill="white"/>
<path d="M114.552 68.8275H23.5282C23.4058 68.8275 23.2885 68.7792 23.202 68.6933C23.1155 68.6074 23.0669 68.4908 23.0669 68.3693C23.0669 68.2478 23.1155 68.1313 23.202 68.0453C23.2885 67.9594 23.4058 67.9111 23.5282 67.9111H114.552C114.675 67.9111 114.792 67.9594 114.879 68.0453C114.965 68.1313 115.014 68.2478 115.014 68.3693C115.014 68.4908 114.965 68.6074 114.879 68.6933C114.792 68.7792 114.675 68.8275 114.552 68.8275Z" fill="white"/>
<path d="M68.336 80.4227C68.2137 80.4227 68.0964 80.3744 68.0099 80.2885C67.9234 80.2026 67.8748 80.086 67.8748 79.9645V29.8693C67.8748 29.7478 67.9234 29.6313 68.0099 29.5453C68.0964 29.4594 68.2137 29.4111 68.336 29.4111C68.4584 29.4111 68.5757 29.4594 68.6622 29.5453C68.7487 29.6313 68.7973 29.7478 68.7973 29.8693V79.9645C68.7973 80.086 68.7487 80.2026 68.6622 80.2885C68.5757 80.3744 68.4584 80.4227 68.336 80.4227Z" fill="white"/>
<path d="M68.5695 79.4936C49.1377 79.4936 33.3284 68.2619 33.3284 54.446C33.3284 40.6302 49.1377 29.3984 68.5695 29.3984C88.0014 29.3984 103.808 40.6302 103.808 54.446C103.808 68.2619 87.9983 79.4936 68.5695 79.4936ZM68.5695 30.3393C49.6451 30.3393 34.2509 41.1586 34.2509 54.4705C34.2509 67.7824 49.6451 78.6017 68.5695 78.6017C87.494 78.6017 102.885 67.7824 102.885 54.4705C102.885 41.1586 87.4909 30.3393 68.5695 30.3393Z" fill="white"/>
<path d="M78.1392 79.4948C77.4702 79.4553 76.828 79.2193 76.2942 78.8166C75.7814 78.4233 75.3912 77.8938 75.1686 77.2893C74.0882 74.4396 73.5179 71.4241 73.4835 68.3791C73.4835 68.2966 73.4835 59.8599 72.7301 53.9279C72.7171 53.8225 72.6832 53.7208 72.6305 53.6285C72.5777 53.5362 72.507 53.4553 72.4225 53.3903C72.3363 53.3233 72.2375 53.2742 72.1319 53.2459C72.0262 53.2176 71.9159 53.2106 71.8075 53.2253L71.3186 53.2864C70.8818 53.3414 70.4801 53.5524 70.1887 53.8802C69.8972 54.2079 69.7359 54.6299 69.7349 55.0672V75.3252C69.7365 75.3446 69.7365 75.364 69.7349 75.3833C69.6826 75.8048 69.1537 79.4948 66.9426 79.4948C66.395 79.4611 65.8631 79.299 65.3906 79.0219C64.9181 78.7447 64.5184 78.3604 64.2242 77.9003C64.1867 77.8409 64.1626 77.7742 64.1535 77.7048L62.865 68.1195L62.2684 75.8079C62.2684 76.935 61.7733 79.0305 59.9405 79.0305C59.8729 79.0305 58.2492 79.0305 57.6618 77.8514C57.6219 77.772 56.684 75.8598 56.2135 70.7312C56.2135 70.6731 55.3063 63.4735 55.2909 59.2887L54.3684 58.354L53.4274 59.2856V63.7331C53.4271 63.7937 53.4156 63.8538 53.3935 63.9103L51.3363 68.7976C51.2199 69.0789 51.0217 69.3193 50.7669 69.488C50.5122 69.6567 50.2125 69.746 49.9063 69.7445H48.7593V74.1095C48.7602 74.3618 48.7197 74.6125 48.6394 74.8518C48.3503 75.6948 47.8152 76.6998 46.8988 76.6998C46.8487 76.6991 46.7989 76.6909 46.7512 76.6754C46.6805 76.654 45.0353 76.0889 45.0353 74.3875V73.0068V73.0526C45.0353 73.6299 44.9123 76.6998 43.1718 76.6998C43.1226 76.6994 43.0738 76.6911 43.0272 76.6754C42.9565 76.654 41.3113 76.0889 41.3113 74.3875V69.2863L41.7418 60.2692C41.7494 60.1002 41.7217 59.9316 41.6603 59.7738C41.5989 59.6161 41.5052 59.4727 41.3851 59.3528L40.3119 58.2898C39.8355 57.8232 39.476 57.2521 39.2624 56.6224C39.0487 55.9926 38.9869 55.3218 39.0818 54.664C39.4344 52.0055 40.8085 49.5854 42.9165 47.9103C42.3015 47.2689 41.2406 45.9188 41.1883 44.3579C41.1746 43.8439 41.2711 43.333 41.4716 42.859C41.672 42.385 41.9717 41.9588 42.3507 41.6087C42.4955 41.4499 42.6528 41.3028 42.8212 41.1689C43.5069 40.5983 44.3564 40.2572 45.2487 40.1941C46.1409 40.131 47.0305 40.3492 47.7906 40.8176C48.5951 41.2804 49.2345 41.9806 49.6203 42.8208C50.006 43.661 50.1189 44.5996 49.9432 45.5064C49.8245 46.1164 49.6356 46.7108 49.3805 47.2781C50.1945 47.7097 50.9119 48.301 51.4891 49.0161C52.0663 49.7312 52.4914 50.5553 52.7385 51.4384L53.4458 53.8821L55.2909 48.7748C55.6795 46.8941 56.4854 45.1231 57.6498 43.5908C58.8143 42.0584 60.3081 40.8032 62.0224 39.9165L61.6595 39.4675C61.1127 38.9566 60.7232 38.3019 60.5363 37.5798C60.3494 36.8576 60.3728 36.0975 60.6038 35.388C60.8348 34.6785 61.2638 34.0487 61.8411 33.572C62.4183 33.0952 63.1199 32.7911 63.8644 32.695C64.6088 32.5988 65.3654 32.7147 66.0462 33.029C66.7269 33.3433 67.3038 33.8432 67.7097 34.4704C68.1157 35.0977 68.3339 35.8265 68.3391 36.5722C68.3443 37.3179 68.1362 38.0497 67.7391 38.6824C67.4743 39.0953 67.3474 39.5806 67.3762 40.0692L67.3947 40.3411L70.9803 43.9241C71.0465 43.9897 71.1323 44.0323 71.2248 44.0455C71.3174 44.0587 71.4117 44.0418 71.4939 43.9974L75.0456 42.0364L75.9159 41.12C75.5606 40.7364 75.2855 40.2865 75.1067 39.7964C74.928 39.3063 74.849 38.7858 74.8745 38.2651C74.8999 37.7445 75.0293 37.234 75.2551 36.7635C75.4808 36.2929 75.7985 35.8716 76.1896 35.524C76.6012 35.1608 77.0845 34.8868 77.6087 34.7195C78.1328 34.5522 78.6863 34.4953 79.2339 34.5524C79.7814 34.6096 80.311 34.7794 80.7887 35.0512C81.2665 35.323 81.6819 35.6908 82.0086 36.131C82.3352 36.5712 82.5659 37.0742 82.6858 37.608C82.8058 38.1417 82.8124 38.6944 82.7053 39.2308C82.5982 39.7673 82.3796 40.2756 82.0636 40.7234C81.7476 41.1712 81.3411 41.5487 80.87 41.8317L80.8976 42.1036C82.3596 42.9235 83.6565 44.0047 84.7231 45.2926C85.2566 45.9221 85.6318 46.6686 85.8179 47.4705L86.8634 51.9699C86.9271 52.2547 87.052 52.5224 87.2294 52.7549L88.0412 53.8332L90.1938 52.4067L90.0462 51.918C89.4846 51.365 89.1024 50.6578 88.949 49.8873C88.7955 49.1168 88.8777 48.3182 89.185 47.5945C89.4923 46.8708 90.0107 46.2551 90.6734 45.8265C91.3361 45.398 92.1127 45.1763 92.9033 45.1899C93.694 45.2036 94.4624 45.452 95.1096 45.9032C95.7569 46.3544 96.2534 46.9877 96.5352 47.7216C96.817 48.4555 96.8711 49.2564 96.6908 50.0211C96.5104 50.7859 96.1037 51.4795 95.523 52.0127L95.8121 53.2589L99.4131 55.9409C99.4907 55.9988 99.548 56.0796 99.5767 56.1717C99.6054 56.2639 99.6041 56.3627 99.573 56.454C99.5361 56.564 98.6935 59.0351 96.9806 60.5502L100.431 64.8266C100.494 64.907 100.528 65.0059 100.528 65.1077C100.528 65.2094 100.494 65.3083 100.431 65.3887L99.6099 66.4761C99.1725 67.0522 98.5584 67.4714 97.8601 67.6705C97.1886 67.8604 96.5662 68.192 96.0355 68.6428C95.5048 69.0935 95.0782 69.6527 94.785 70.2821L93.3489 73.3703C93.1707 73.7715 92.8758 74.1107 92.5021 74.3442C92.1284 74.5777 91.6929 74.6949 91.2517 74.6807C90.9276 74.6778 90.6129 74.5719 90.3539 74.3784C90.0949 74.1849 89.9052 73.914 89.8125 73.6055C89.8059 73.5845 89.8008 73.5631 89.7971 73.5414L88.9853 69.1C88.9371 68.841 88.8703 68.5858 88.7854 68.3364L87.6168 68.7854C87.564 68.806 87.5076 68.8164 87.4508 68.8159H83.327C83.0522 68.888 82.7655 68.9036 82.4844 68.8617H82.466C82.3796 68.9411 82.2994 69.0269 82.2261 69.1183C82.1645 69.1933 82.0805 69.2468 81.9862 69.2711L80.4671 69.6468V76.709C80.4703 76.7384 80.4703 76.7681 80.4671 76.7976C80.4364 76.9167 79.8982 79.4948 78.1392 79.4948ZM71.9028 52.2937C72.3267 52.294 72.736 52.4476 73.054 52.7259C73.3721 53.0042 73.5772 53.3881 73.6311 53.8057C74.3845 59.7957 74.3906 68.2875 74.3906 68.37C74.424 71.3032 74.9735 74.2081 76.0143 76.9533C76.1746 77.399 76.4581 77.7907 76.8323 78.0835C77.2101 78.3693 77.6628 78.5411 78.1362 78.5784C79.0433 78.5784 79.4708 76.9442 79.5384 76.6662V69.2985C79.5385 69.1943 79.5741 69.0932 79.6395 69.0117C79.7048 68.9301 79.796 68.873 79.8982 68.8495L81.6203 68.4219C81.9647 68.0309 82.1923 67.9026 82.6136 67.9637C82.7978 67.9908 82.9857 67.9772 83.164 67.924C83.2018 67.9193 83.24 67.9193 83.2778 67.924H87.3923L88.9084 67.3222C89.0195 67.2785 89.1433 67.2795 89.2536 67.3251C89.3639 67.3708 89.4519 67.4574 89.4988 67.5666C89.6899 68.0087 89.8302 68.4708 89.917 68.9442L90.7227 73.3489C90.7604 73.4761 90.84 73.5871 90.9487 73.6641C91.0574 73.7411 91.189 73.7796 91.3224 73.7735C91.5827 73.7808 91.8393 73.7102 92.0587 73.5707C92.278 73.4313 92.4501 73.2294 92.5524 72.9915L93.9885 69.9034C94.336 69.1551 94.842 68.4902 95.472 67.954C96.102 67.4179 96.8411 67.0232 97.6387 66.7968C98.1439 66.6521 98.5884 66.3488 98.9057 65.9324L99.5207 65.129L96.0089 60.7671C95.9702 60.7194 95.9416 60.6645 95.9248 60.6056C95.908 60.5467 95.9033 60.485 95.9111 60.4242C95.9188 60.3635 95.9389 60.3049 95.9699 60.252C96.001 60.1992 96.0425 60.153 96.0919 60.1165C97.4696 59.0901 98.3214 57.2055 98.6166 56.4693L95.1571 53.8943C95.0705 53.8281 95.0097 53.7342 94.9849 53.6285L94.5974 51.9485C94.5772 51.8645 94.5816 51.7765 94.6099 51.6948C94.6382 51.6131 94.6894 51.5412 94.7573 51.4873C95.2442 51.1039 95.6012 50.5816 95.7803 49.9907C95.9594 49.3997 95.952 48.7685 95.7591 48.1818C95.5662 47.5952 95.197 47.0813 94.7012 46.7093C94.2055 46.3374 93.607 46.1251 92.9861 46.1011C92.3653 46.0772 91.752 46.2427 91.2287 46.5753C90.7054 46.908 90.2972 47.3919 90.0591 47.9619C89.8209 48.5319 89.7642 49.1607 89.8966 49.7636C90.029 50.3666 90.3441 50.9148 90.7996 51.3345C90.8607 51.3898 90.9053 51.4605 90.9288 51.5392L91.2086 52.4556C91.2372 52.5495 91.2347 52.65 91.2015 52.7424C91.1683 52.8347 91.1061 52.9141 91.0241 52.9687L88.2011 54.8412C88.1038 54.9032 87.9865 54.9266 87.8726 54.9068C87.7587 54.887 87.6564 54.8254 87.5861 54.7343L86.5098 53.3109C86.2562 52.9759 86.076 52.592 85.9809 52.1837L84.9353 47.6843C84.7835 47.0234 84.4758 46.4078 84.0374 45.8882C82.9989 44.6291 81.7223 43.5841 80.2795 42.8122C80.2098 42.7789 80.1499 42.7281 80.1057 42.665C80.0615 42.6018 80.0346 42.5284 80.0274 42.4518L79.9382 41.6332C79.9276 41.5399 79.9461 41.4456 79.9912 41.3631C80.0363 41.2806 80.1058 41.2139 80.1904 41.1719C80.7805 40.885 81.261 40.4159 81.56 39.8348C81.8591 39.2537 81.9604 38.592 81.8488 37.9489C81.7373 37.3058 81.4189 36.7159 80.9413 36.2677C80.4638 35.8195 79.8529 35.5371 79.2002 35.4629C78.7731 35.4117 78.34 35.4521 77.93 35.5811C77.5199 35.7102 77.1425 35.9251 76.8231 36.2113C76.4997 36.499 76.2421 36.8521 76.0676 37.2469C75.893 37.6417 75.8056 38.069 75.8111 38.5001C75.8166 38.9313 75.915 39.3563 76.0996 39.7465C76.2843 40.1368 76.5509 40.4832 76.8815 40.7626C76.9769 40.8448 77.0355 40.9613 77.0445 41.0864C77.0474 41.1484 77.0377 41.2104 77.016 41.2686C76.9944 41.3269 76.9612 41.3802 76.9184 41.4255L75.6883 42.7176C75.6558 42.7512 75.6185 42.78 75.5776 42.8031L71.9644 44.7977C71.7064 44.9388 71.4093 44.993 71.1177 44.9522C70.8261 44.9115 70.5556 44.778 70.3468 44.5717L66.6228 40.8726C66.541 40.7913 66.4937 40.682 66.4906 40.5671L66.4629 40.1242C66.4208 39.4443 66.5962 38.7686 66.9642 38.1937C67.3708 37.5388 67.5135 36.7555 67.3639 36.0005C67.2497 35.418 66.9635 34.8824 66.5418 34.4619C66.1202 34.0414 65.5821 33.7551 64.9961 33.6393C64.5526 33.5487 64.0944 33.5564 63.6542 33.662C63.214 33.7676 62.8028 33.9685 62.4498 34.2502C62.115 34.5243 61.843 34.8664 61.6523 35.2535C61.4615 35.6406 61.3563 36.0637 61.3438 36.4946C61.3312 36.9254 61.4117 37.3539 61.5796 37.7512C61.7476 38.1486 61.9992 38.5057 62.3176 38.7985C62.3356 38.8143 62.352 38.8317 62.3668 38.8504L63.1079 39.7668C63.1517 39.8208 63.1825 39.884 63.198 39.9516C63.2135 40.0192 63.2132 40.0894 63.1972 40.1569C63.1812 40.2244 63.1498 40.2874 63.1056 40.341C63.0613 40.3946 63.0053 40.4375 62.9419 40.4663C57.1821 43.1085 56.2104 48.8756 56.2012 48.9306C56.1972 48.9598 56.19 48.9885 56.1796 49.0161L53.8456 55.5071C53.8118 55.5979 53.7505 55.6761 53.6701 55.7308C53.5896 55.7856 53.4941 55.8141 53.3966 55.8126C53.2991 55.8091 53.2051 55.775 53.1283 55.7152C53.0515 55.6554 52.9958 55.5729 52.9692 55.4796L51.8652 51.6492C51.6349 50.8794 51.2474 50.165 50.7267 49.5506C50.2061 48.9363 49.5636 48.4351 48.8393 48.0784L48.5317 47.9256C48.4234 47.8712 48.3409 47.7766 48.3024 47.6622C48.2638 47.5478 48.2722 47.423 48.3257 47.3147C48.6398 46.701 48.8675 46.0473 49.0022 45.372C49.1463 44.6492 49.0599 43.8997 48.7551 43.228C48.4503 42.5562 47.9423 41.9956 47.3017 41.624C46.7033 41.2561 46.0037 41.0844 45.3017 41.1332C44.5998 41.182 43.931 41.4488 43.3901 41.8959C43.2602 41.999 43.1388 42.1124 43.0272 42.2349L42.9965 42.2746C42.7055 42.5349 42.4742 42.8542 42.3182 43.211C42.1622 43.5678 42.0852 43.9537 42.0924 44.3426C42.1477 46.0776 43.8913 47.6202 43.9098 47.6354C43.9625 47.6812 44.0041 47.7384 44.0313 47.8025C44.0585 47.8666 44.0706 47.9361 44.0667 48.0056C44.0629 48.075 44.0432 48.1427 44.009 48.2035C43.9749 48.2643 43.9273 48.3165 43.8698 48.3563C42.8078 49.1059 41.9127 50.0647 41.2402 51.1731C40.5678 52.2815 40.1324 53.5156 39.9613 54.7984C39.8869 55.3135 39.9349 55.8387 40.1015 56.332C40.2681 56.8253 40.5487 57.273 40.9208 57.6392L41.9909 58.7022C42.2005 58.9139 42.3635 59.1666 42.4694 59.4443C42.5753 59.722 42.6218 60.0185 42.6059 60.315L42.1754 69.3108V74.3905C42.1888 74.6947 42.2914 74.9883 42.4706 75.2352C42.6498 75.4822 42.8978 75.6716 43.1841 75.7804C43.7991 75.6582 44.0513 73.9476 44.0543 72.9977C44.0498 72.9611 44.0498 72.9242 44.0543 72.8877L44.9769 69.1794C45.0054 69.0724 45.0719 68.9793 45.1641 68.9172C45.2563 68.8551 45.3681 68.8283 45.4787 68.8417C45.5893 68.8551 45.6913 68.9078 45.7658 68.9901C45.8403 69.0724 45.8823 69.1787 45.884 69.2894V74.3905C45.8966 74.6941 45.9986 74.9873 46.1773 75.2338C46.3561 75.4804 46.6037 75.6693 46.8896 75.7773C47.1449 75.7071 47.4585 75.2367 47.6922 74.5555C47.7391 74.4104 47.763 74.2589 47.763 74.1065V69.2985C47.763 69.177 47.8116 69.0605 47.8981 68.9746C47.9846 68.8886 48.1019 68.8404 48.2242 68.8404H49.8325C49.9564 68.842 50.0779 68.8064 50.181 68.7382C50.2842 68.6701 50.3642 68.5726 50.4107 68.4585L52.4679 63.6567V59.0962C52.468 58.9748 52.5167 58.8583 52.6032 58.7724L54.0024 57.3826C54.0453 57.3397 54.0963 57.3056 54.1525 57.2823C54.2087 57.2591 54.269 57.2471 54.3299 57.2471C54.3908 57.2471 54.4511 57.2591 54.5073 57.2823C54.5635 57.3056 54.6145 57.3397 54.6574 57.3826L56.0566 58.7724C56.1432 58.8583 56.1918 58.9748 56.1919 59.0962C56.1919 63.1924 57.1145 70.5601 57.1145 70.6334C57.5665 75.5635 58.4614 77.4237 58.4706 77.4421C58.8027 78.0958 59.9159 78.1141 59.9252 78.1141C61.309 78.1141 61.3305 75.814 61.3305 75.7895C61.3305 75.7651 61.3305 75.7651 61.3305 75.7559L62.253 63.6995C62.2607 63.5862 62.3106 63.4799 62.3931 63.4014C62.4756 63.3228 62.5847 63.2777 62.6989 63.2749C62.8127 63.2723 62.9235 63.3113 63.0102 63.3845C63.097 63.4577 63.1536 63.56 63.1694 63.672L65.0145 77.4757C65.2271 77.7885 65.5077 78.05 65.8355 78.2408C66.1634 78.4317 66.5301 78.547 66.9088 78.5784C68.0866 78.5784 68.6616 76.1805 68.7785 75.2978V55.0581C68.7799 54.3973 69.0236 53.7597 69.4639 53.2644C69.9042 52.7692 70.511 52.4501 71.171 52.367L71.6599 52.3059C71.7405 52.2963 71.8217 52.2922 71.9028 52.2937Z" fill="white"/>
<path d="M52.6955 60.0273H42.6582V60.9437H52.6955V60.0273Z" fill="white"/>
<path d="M69.2674 60.0273H55.7583V60.9437H69.2674V60.0273Z" fill="white"/>
<path d="M84.9354 69.0608C84.8323 69.0602 84.7294 69.051 84.6278 69.0333C83.9393 68.9972 83.2901 68.7036 82.8104 68.2117C82.2692 67.6252 82.0355 66.7974 82.1185 65.7497V59.891H73.6619V58.9746H83.0349V65.7955C82.9703 66.5866 83.121 67.1884 83.487 67.5824C83.8042 67.8983 84.2284 68.0856 84.677 68.1078H84.7693C84.8884 68.1345 85.0121 68.1326 85.1303 68.1023C85.2485 68.072 85.3577 68.0142 85.4489 67.9337C86.7958 66.8738 87.2171 62.3377 87.2663 60.6791L87.2817 60.2362H96.3472V61.1525H88.1673C88.0874 62.6798 87.7091 67.3197 86.0147 68.6515C85.7131 68.9074 85.3319 69.0519 84.9354 69.0608Z" fill="white"/>
<path d="M71.7615 68.8274C69.8611 68.8274 68.9939 67.071 68.8155 66.1424C68.8125 66.112 68.8125 66.0813 68.8155 66.0508V62.8068C68.8155 62.6853 68.8641 62.5688 68.9506 62.4828C69.0371 62.3969 69.1544 62.3486 69.2768 62.3486C69.3991 62.3486 69.5164 62.3969 69.6029 62.4828C69.6894 62.5688 69.738 62.6853 69.738 62.8068V66.0019C69.8057 66.2799 70.2424 67.8347 71.6723 67.911C71.9153 67.7797 72.8009 67.2024 73.4836 65.504C73.5293 65.391 73.6183 65.3006 73.731 65.2528C73.8437 65.205 73.971 65.2036 74.0848 65.249C74.1985 65.2943 74.2895 65.3827 74.3377 65.4947C74.3858 65.6067 74.3872 65.7331 74.3415 65.8461C73.3759 68.2379 71.9921 68.7785 71.9337 68.7999C71.8784 68.8192 71.8201 68.8285 71.7615 68.8274Z" fill="white"/>
<path d="M82.8012 51.6758H81.8787V59.5597H82.8012V51.6758Z" fill="white"/>
<path d="M88.4008 54.458H87.4783V60.4847H88.4008V54.458Z" fill="white"/>
<path d="M8.68131 23.6661C9.23792 24.0999 9.51775 24.3107 10.0713 24.723C9.78837 28.3885 9.27482 30.7955 8.51833 32.3259C7.76184 33.8562 6.83623 34.5283 5.72302 34.7085C4.60982 34.8887 3.635 34.6382 2.88467 33.6577C2.13433 32.6772 1.58695 30.9727 1.19949 28.1167C0.775943 24.7603 0.58074 21.3793 0.615208 17.9968C0.615208 14.6612 0.704387 11.182 1.26099 7.822C1.68843 5.25004 2.30346 3.72275 3.0907 2.86135C3.3958 2.48781 3.79841 2.20477 4.25451 2.04316C4.71062 1.88154 5.20267 1.84758 5.6769 1.94498C6.73782 2.13131 7.62961 2.75139 8.3492 4.11068C9.06878 5.46997 9.57926 7.50433 9.86217 10.5253C9.31787 10.8735 9.04418 11.0538 8.4968 11.4234C8.24772 8.93693 7.88177 7.29661 7.4205 6.27333C6.95923 5.25004 6.36573 4.73076 5.65537 4.62385C4.83738 4.49861 4.15162 4.86822 3.60117 5.90678C3.05072 6.94534 2.6571 8.50928 2.43569 10.7269C2.21428 12.9445 2.09743 15.4249 2.09743 17.9846C2.07451 20.7923 2.21312 23.5989 2.51257 26.3908C2.78319 28.6268 3.20448 30.0777 3.77031 30.9422C4.33613 31.8066 4.94501 32.1273 5.59694 32.0357C6.39033 31.9257 7.05456 31.2843 7.59579 29.9586C8.13701 28.6329 8.49681 26.6016 8.68131 23.6661Z" fill="white"/>
<path d="M5.05258 35.3763C4.53331 35.3861 4.01968 35.2679 3.55764 35.0323C3.0956 34.7967 2.69954 34.451 2.40488 34.0262C1.56537 32.8991 0.993393 31.051 0.60285 28.2042C0.175356 24.8205 -0.0208778 21.4119 0.0154973 18.0018C0.0154973 14.709 0.0954514 11.184 0.670503 7.72926C1.10102 5.13897 1.72835 3.45284 2.6509 2.45399C3.02584 2.00697 3.51463 1.66801 4.06632 1.47245C4.618 1.27689 5.21239 1.23189 5.78754 1.34212C7.11908 1.57427 8.13695 2.38679 8.89959 3.8255C9.68375 5.31308 10.185 7.42075 10.4741 10.4753L10.5079 10.848L10.2004 11.0465C9.6653 11.3917 9.39776 11.5658 8.85039 11.9354L7.9955 12.5127L7.89094 11.4925C7.65723 9.14659 7.32204 7.52155 6.86692 6.53492C6.32569 5.34974 5.75679 5.26421 5.56921 5.23672C5.15406 5.17257 4.66204 5.23672 4.14849 6.20197C3.63494 7.16722 3.26592 8.69146 3.05374 10.7838C2.82618 12.9862 2.7124 15.3932 2.7124 17.9835C2.68764 20.7646 2.8242 23.5448 3.12139 26.3103C3.3674 28.3599 3.76102 29.8017 4.2838 30.602C4.88038 31.5184 5.3355 31.4481 5.51386 31.4237C6.09813 31.3412 6.59323 30.7853 7.02683 29.7223C7.55268 28.4332 7.89402 26.4417 8.0693 23.6131L8.1431 22.4554L9.06565 23.1702C9.61917 23.6009 9.89593 23.8086 10.4433 24.2149L10.717 24.4165L10.6893 24.7525C10.4064 28.418 9.89593 30.9197 9.07795 32.5783C8.29071 34.1789 7.23286 35.0678 5.82752 35.2969C5.57176 35.3439 5.31262 35.3705 5.05258 35.3763ZM5.12639 2.50287C4.82209 2.50579 4.52229 2.57614 4.24884 2.70878C3.9754 2.84142 3.7352 3.033 3.54576 3.26957C2.80158 4.09125 2.2542 5.61854 1.86981 7.9217C1.31013 11.2817 1.23325 14.7548 1.23018 18.0018C1.19374 21.3558 1.38689 24.7083 1.80831 28.0362C2.16502 30.6326 2.67857 32.3553 3.3797 33.2962C3.92708 34.0323 4.60976 34.2736 5.62148 34.1087C6.63321 33.9437 7.34971 33.3145 7.96782 32.059C8.67818 30.6142 9.1579 28.305 9.43159 25.0121L9.21018 24.8472C9.00722 27.2084 8.6628 28.9617 8.16463 30.1835C7.5496 31.6864 6.74084 32.4897 5.68299 32.6272C4.76045 32.7585 3.93323 32.2973 3.25362 31.2618C2.62014 30.2904 2.17732 28.7173 1.90056 26.4508C1.59909 23.6386 1.45946 20.8116 1.48234 17.9835C1.48234 15.3627 1.59612 12.9037 1.82061 10.6739C2.04509 8.44404 2.43564 6.76096 3.05066 5.63076C3.86865 4.10347 4.96648 3.91103 5.74142 4.0271C6.68241 4.17067 7.43274 4.84268 7.97397 6.02786C8.41372 6.98394 8.74583 8.41044 8.99184 10.3623L9.2071 10.2218C8.93034 7.56431 8.46907 5.6552 7.79869 4.3906C7.20826 3.27873 6.51943 2.71058 5.56306 2.54257C5.41896 2.51663 5.27283 2.50334 5.12639 2.50287Z" fill="white"/>
<path d="M14.0596 33.0153C14.0319 23.2406 14.0288 13.4843 13.998 3.71875C15.8431 4.02421 16.7411 4.17999 18.5493 4.47629C19.3113 4.55409 20.0323 4.85737 20.6188 5.34684C21.0893 5.78671 21.4645 6.50759 21.7443 7.63778C22.0439 8.95338 22.1843 10.2998 22.1626 11.6485C22.192 13.43 21.9589 15.2062 21.4706 16.9207C21.0063 18.4052 20.2898 19.3643 19.318 19.8073C19.6466 20.2828 19.9171 20.7955 20.1237 21.3345C20.5661 22.6118 20.9347 23.9132 21.2277 25.2322C21.9258 28.2868 22.2733 29.6491 22.9621 31.601L21.3015 31.8576C20.7681 30.3131 20.3246 28.7394 19.9731 27.1444C19.5825 25.5468 19.2596 24.1753 19.0075 23.2131C18.8442 22.5084 18.6157 21.8203 18.3248 21.1574C18.1858 20.8368 17.9756 20.5517 17.7097 20.3235C17.4777 20.2082 17.2176 20.1606 16.9594 20.186L15.3911 20.2135C15.3911 24.4044 15.3983 28.5933 15.4126 32.7801L14.0596 33.0153ZM15.3849 16.4228L18.2879 16.5052C18.5535 16.5278 18.8208 16.4907 19.0699 16.3965C19.3191 16.3024 19.5437 16.1537 19.727 15.9615C20.1377 15.4325 20.4083 14.8098 20.5143 14.1502C20.6961 13.2862 20.7868 12.4058 20.7849 11.5232C20.8257 10.4213 20.6481 9.32223 20.2621 8.28841C19.9146 7.46367 19.3642 7.02687 18.6077 6.91996L15.3696 6.45566C15.3757 9.76683 15.3808 13.0892 15.3849 16.4228Z" fill="white"/>
<path d="M13.4477 33.7202V33.0177C13.4354 28.2464 13.4262 23.4762 13.4201 18.7069C13.4201 13.7137 13.4088 8.71742 13.3862 3.71808V2.99414L14.1058 3.11632C15.9355 3.42178 16.8458 3.57451 18.654 3.87081C19.7087 4.04492 20.499 4.38092 21.0433 4.9002C21.5876 5.41948 22.0489 6.29004 22.3441 7.49049C22.6575 8.85376 22.8042 10.2496 22.7808 11.6478C22.812 13.4939 22.5674 15.3345 22.0551 17.1094C21.6307 18.4626 21.0003 19.44 20.1731 20.0265C20.3801 20.383 20.557 20.7559 20.702 21.1414C21.1514 22.4432 21.5271 23.7689 21.8275 25.1124C22.504 28.0509 22.8454 29.4438 23.5434 31.4171L23.7894 32.1105L20.8865 32.5564L20.7204 32.0738C20.1796 30.5112 19.7289 28.9192 19.3705 27.3056C19.2536 26.8199 19.1398 26.3526 19.0353 25.9127C18.7923 24.9138 18.5832 24.0494 18.4202 23.3896C18.264 22.7259 18.05 22.0769 17.7806 21.4499C17.6866 21.219 17.544 21.0107 17.3624 20.839C17.2528 20.8194 17.1416 20.8102 17.0303 20.8115H16.978L16.0124 20.8299V21.5019C16.0124 25.2712 16.0186 29.0386 16.0309 32.8038V33.3262L13.4477 33.7202ZM14.6163 4.4298C14.6286 9.18273 14.6388 13.9377 14.647 18.6947C14.647 23.2257 14.6552 27.7556 14.6716 32.2846L14.7977 32.2662C14.7977 28.672 14.7916 25.0757 14.7793 21.4774V19.6325L16.9503 19.5928C17.3396 19.5581 17.7301 19.6457 18.0666 19.8432C18.4157 20.1234 18.692 20.4827 18.8723 20.891C19.183 21.5928 19.427 22.3219 19.6011 23.0689C19.7764 23.7409 19.9886 24.5962 20.2161 25.6164C20.3207 26.0563 20.4345 26.5328 20.5513 27.0093C21.0218 28.9581 21.2832 29.9478 21.6983 31.1819L22.1258 31.1177C21.5219 29.2316 21.0159 27.3158 20.6097 25.3781C20.3211 24.0823 19.9597 22.8035 19.5273 21.5477C19.3363 21.0532 19.0876 20.5826 18.7862 20.1456L18.3803 19.5347L19.0476 19.2293C19.841 18.878 20.4498 18.0349 20.8619 16.7214C21.3371 15.0632 21.563 13.3442 21.5323 11.6203C21.56 10.3315 21.4362 9.04396 21.1633 7.78373C20.9234 6.81848 20.6128 6.1648 20.2131 5.78909C19.7139 5.38653 19.1064 5.13898 18.4664 5.07737L14.6163 4.4298ZM18.3649 17.1063H18.2696L14.77 17.0055V15.5913C14.77 12.5367 14.77 9.49124 14.77 6.45499V5.74632L15.4773 5.85018L18.7032 6.31448C19.6934 6.45499 20.4099 7.04147 20.8373 8.05254C21.2571 9.16026 21.4515 10.3397 21.4093 11.5225C21.4106 12.4463 21.3148 13.3677 21.1233 14.2717C21.0036 15.0368 20.6857 15.7578 20.2008 16.3641C19.9683 16.6147 19.6836 16.8121 19.3666 16.9424C19.0495 17.0727 18.7077 17.1328 18.3649 17.1185V17.1063ZM16.0001 15.8173L18.3065 15.8845C18.4834 15.9022 18.6621 15.8801 18.8293 15.8198C18.9964 15.7595 19.1478 15.6626 19.2721 15.5363C19.4566 15.3347 19.718 14.907 19.9117 14.009C20.0849 13.1873 20.1715 12.3499 20.17 11.5103C20.2095 10.4894 20.0486 9.47063 19.6964 8.51072C19.435 7.89981 19.0814 7.59435 18.5217 7.51187L15.9847 7.14838C15.9847 9.9586 15.9847 12.7688 15.9847 15.579L16.0001 15.8173Z" fill="white"/>
<path d="M26.3911 31.1031C26.428 22.6449 26.4403 14.1868 26.4803 5.72559C29.3894 6.16545 30.8378 6.37316 33.7315 6.75498C33.7315 7.59499 33.7315 8.0654 33.71 9.0673C31.3483 8.79239 30.1674 8.64882 27.7965 8.34337C27.7965 11.0925 27.778 12.8397 27.7626 16.2853C29.9706 16.3555 31.0715 16.3891 33.2733 16.4502C33.2733 17.6721 33.2733 18.283 33.2518 19.5262L27.7503 19.6026L27.7134 28.4975C30.1459 28.1921 31.3575 28.0485 33.7838 27.7675C33.7838 28.7694 33.7838 29.2398 33.7592 30.0767C30.8224 30.4586 29.3556 30.6663 26.3911 31.1031Z" fill="white"/>
<path d="M25.7759 31.8108V31.0991C25.7943 26.8716 25.8087 22.643 25.8189 18.4134C25.8292 14.1838 25.8446 9.95323 25.8651 5.72161V5.00684L26.5693 5.11375C29.423 5.54139 30.8745 5.7491 33.8112 6.14009L34.3494 6.21034V6.751C34.3494 7.59102 34.3494 8.06142 34.3278 9.06333V9.74144L33.6482 9.66508C31.468 9.41155 30.2933 9.26798 28.4205 9.02973C28.4205 11.2504 28.4051 12.9029 28.3928 15.6796C30.2195 15.7345 31.3111 15.7681 33.313 15.8231L33.9281 15.8415L33.8942 20.1179L28.3959 20.1942C28.3959 22.7255 28.3856 25.2587 28.3651 27.794C30.3332 27.5497 31.5387 27.4061 33.7466 27.1526L34.4385 27.0732V27.7635C34.4385 28.7654 34.4385 29.2358 34.4139 30.0728V30.6043L33.8881 30.6715C30.9298 31.0625 29.4537 31.2824 26.5262 31.7039L25.7759 31.8108ZM27.0951 6.43638C27.0767 10.4277 27.0623 14.4211 27.0521 18.4165C27.0418 22.4119 27.0264 26.4042 27.0059 30.3935C29.3246 30.0544 30.7576 29.8498 33.1562 29.5352C33.1562 29.1686 33.1562 28.8479 33.1562 28.4477C31.1451 28.6799 29.9458 28.8265 27.7839 29.0984L27.089 29.1839V28.4874L27.1259 19.5925V18.9816L32.6273 18.9083L32.6427 17.0266C30.8222 16.9778 29.7305 16.9442 27.7224 16.88L27.1074 16.8617V15.7193C27.1074 12.6341 27.1259 10.9358 27.1382 8.33328V7.64905L27.8301 7.73764C29.9058 8.00338 31.0651 8.14695 33.0578 8.3791C33.0578 7.97895 33.0578 7.65211 33.0578 7.28861C30.7576 6.97399 29.3523 6.77239 27.1013 6.43638H27.0951Z" fill="white"/>
<path d="M37.7322 29.5702C37.8367 22.1414 37.8859 14.7157 37.9874 7.29004C39.3712 7.45499 40.0631 7.53441 41.447 7.68103C42.0634 7.72318 42.6679 7.87096 43.2336 8.11783C43.8539 8.44819 44.3613 8.9543 44.6912 9.57181C45.2816 10.6705 45.669 11.8654 45.8352 13.0999C46.0882 14.8188 46.1911 16.5562 46.1427 18.2927C46.1373 19.7756 46.0305 21.2564 45.8229 22.7249C45.6786 23.7714 45.4324 24.8015 45.0879 25.8008C44.8653 26.4544 44.5472 27.0719 44.1439 27.6336C43.8213 28.0632 43.4064 28.4159 42.9292 28.666C42.4274 28.9246 41.8804 29.0853 41.3178 29.1395C39.8786 29.3105 39.1621 29.3961 37.7322 29.5702ZM39.076 27.1815C39.9248 27.0929 40.3522 27.0471 41.204 26.9646C41.7603 26.9339 42.2979 26.7545 42.76 26.4453C43.1578 26.1486 43.4748 25.758 43.6826 25.309C44.069 24.4329 44.3308 23.5077 44.4606 22.5599C44.6678 21.1325 44.7706 19.6921 44.7681 18.2499C44.8019 15.8918 44.6543 14.114 44.3253 12.8921C43.9962 11.6703 43.5873 10.8761 43.0952 10.4485C42.7447 10.143 42.1727 9.95669 41.3793 9.88033L39.2728 9.66956C39.2072 15.5079 39.1416 21.3452 39.076 27.1815Z" fill="white"/>
<path d="M37.1079 30.2603V29.5608C37.1602 25.8495 37.1971 22.074 37.2371 18.4238C37.277 14.7736 37.3139 10.995 37.3631 7.28066V6.60254L38.0397 6.68196C39.4573 6.85302 40.1338 6.92938 41.4931 7.076C42.1847 7.12311 42.8625 7.29169 43.495 7.5739C44.2182 7.96113 44.8123 8.54914 45.2047 9.26614C45.832 10.4289 46.2434 11.6944 46.4194 13.0019C46.6846 14.7555 46.7947 16.5289 46.7485 18.3016C46.7392 19.8144 46.6261 21.3248 46.4102 22.8224C46.2587 23.9093 46.0023 24.9793 45.6445 26.0175C45.4019 26.7307 45.0537 27.404 44.6112 28.0152C44.2339 28.5131 43.7524 28.9237 43.1998 29.2187C42.6246 29.513 41.9986 29.6965 41.3547 29.7593C39.9186 29.9182 39.2021 30.0007 37.7752 30.1748L37.1079 30.2603ZM38.5932 7.9771C38.5471 11.4685 38.5102 15.0026 38.4763 18.436C38.4425 21.8694 38.4025 25.3913 38.3564 28.8766C39.3651 28.7574 40.0631 28.675 41.2501 28.5436C41.7352 28.4991 42.2071 28.3622 42.6401 28.1404C43.0367 27.9302 43.382 27.6362 43.6518 27.279C44.0187 26.7625 44.3077 26.1955 44.5098 25.596C44.84 24.6342 45.0758 23.6429 45.214 22.6361C45.4243 21.1944 45.5332 19.74 45.5399 18.2833C45.5854 16.5823 45.4825 14.8807 45.2324 13.1974C45.0758 12.036 44.7146 10.911 44.1654 9.874C43.8937 9.35753 43.4743 8.93241 42.9599 8.65217C42.4612 8.44015 41.9298 8.31412 41.3885 8.27951C40.2538 8.16954 39.5957 8.09318 38.5932 7.9771ZM38.4517 27.8594V27.1721C38.4886 24.256 38.5235 21.3389 38.5563 18.4207C38.5891 15.5026 38.624 12.5855 38.6609 9.66934V9.00039L39.3312 9.06759L41.4592 9.28447C42.3818 9.37305 43.0675 9.60825 43.5196 9.99924C44.1131 10.5155 44.5774 11.4135 44.9341 12.7484C45.2909 14.0832 45.4323 15.8427 45.3985 18.2741C45.3959 19.7474 45.2849 21.2185 45.0664 22.6758C44.9214 23.6756 44.6389 24.651 44.2269 25.5746C43.9761 26.1104 43.5971 26.5771 43.1229 26.9339C42.5705 27.3087 41.9269 27.5292 41.2593 27.5723C40.4075 27.6547 39.9832 27.7006 39.1344 27.7891L38.4517 27.8594ZM39.8909 10.3505C39.8561 13.0467 39.8243 15.7419 39.7956 18.436C39.7669 21.1301 39.7351 23.8182 39.7003 26.5001L41.1425 26.3565C41.5836 26.3328 42.0109 26.1948 42.3818 25.9564C42.6974 25.7156 42.9478 25.4007 43.1106 25.04C43.4683 24.2151 43.7114 23.3458 43.8332 22.4558C44.039 21.058 44.1418 19.6471 44.1408 18.2344C44.1746 15.9496 44.03 14.2054 43.7195 13.0416C43.3597 11.7068 42.9568 11.1417 42.6801 10.9034C42.5109 10.7568 42.1358 10.5643 41.3116 10.4849L39.8909 10.3505Z" fill="white"/>
<path d="M50.3032 28.2882C50.4139 21.6934 50.5 15.1016 50.6107 8.50977L51.9638 8.6014C51.8562 15.1291 51.7793 21.6536 51.6563 28.1813C51.1212 28.2241 50.8475 28.2424 50.3032 28.2882Z" fill="white"/>
<path d="M49.676 28.9506V28.2786C49.7314 24.9796 49.7826 21.6827 49.8298 18.3878C49.8769 15.0929 49.9282 11.796 49.9835 8.49706V7.85254L50.6324 7.89836L51.9824 7.99305L52.5667 8.02971V8.61313C52.5154 11.8143 52.4672 15.0166 52.4221 18.2198C52.375 21.5432 52.3248 24.8666 52.2715 28.19V28.7459L51.7118 28.7887L50.3495 28.8956L49.676 28.9506ZM51.2136 9.16296C51.1644 12.244 51.1172 15.3251 51.0721 18.4061C51.027 21.4872 50.9799 24.556 50.9307 27.6127H51.0629C51.1162 24.4766 51.1634 21.3406 51.2044 18.2045C51.2474 15.1927 51.2925 12.1819 51.3397 9.17212L51.2136 9.16296Z" fill="white"/>
<path d="M59.1013 27.7132C59.1566 22.1783 59.2089 16.6423 59.2581 11.1054C57.8712 11.0504 57.1824 11.0199 55.814 10.9527C55.814 10.0791 55.8324 9.65141 55.8416 8.81445C59.129 8.97635 60.7926 9.02827 64.1784 9.06798C64.1784 9.93243 64.1784 10.3662 64.1784 11.2337C62.7576 11.2062 62.0534 11.1879 60.6542 11.142C60.6153 16.6403 60.5743 22.1386 60.5312 27.6368L59.1013 27.7132Z" fill="white"/>
<path d="M58.4801 28.3576V27.7069L58.5816 17.0953L58.6308 11.6917C57.616 11.652 56.9518 11.6215 55.7771 11.5634L55.1836 11.5329L55.2297 8.17285L55.8663 8.2034C59.2336 8.36834 60.8634 8.42027 64.1692 8.45693H64.7842V11.872H64.1692C62.9822 11.8506 62.3026 11.8322 61.2693 11.7986L61.1401 28.2231L60.5559 28.2476L59.1321 28.3148L58.4801 28.3576ZM56.4383 10.3722C57.4531 10.421 58.1142 10.4485 59.2797 10.4943L59.8947 10.5157L59.8332 17.1075C59.8025 20.4289 59.7707 23.7502 59.7379 27.0716H59.9347L60.0577 10.531L60.6727 10.5524C61.8659 10.5921 62.5424 10.6104 63.5603 10.6318V9.68487C60.8234 9.64822 59.2151 9.59934 56.4475 9.468L56.4383 10.3722Z" fill="white"/>
<path d="M84.6373 8.04454L86.0672 7.93457C86.0672 11.6184 86.0672 15.3033 86.0672 18.9891C86.1051 20.5412 85.9815 22.093 85.6982 23.6199C85.5209 24.559 85.0546 25.4203 84.3636 26.0849C83.7239 26.6684 82.8875 26.9066 81.8512 26.8394C80.9394 26.8159 80.0664 26.4679 79.3911 25.8589C78.6967 25.1537 78.2234 24.2634 78.0288 23.2961C77.7212 21.8052 77.585 20.2845 77.6229 18.7631V8.36832C78.1856 8.36832 78.4685 8.34999 79.0344 8.33167V18.7845C78.9974 19.9597 79.0808 21.1357 79.2835 22.2942C79.4077 22.9528 79.7156 23.5635 80.1722 24.0567C80.5793 24.4716 81.1275 24.721 81.7097 24.7562C82.7553 24.8295 83.4995 24.5088 83.9454 23.7329C84.3913 22.957 84.6157 21.3809 84.6157 18.925C84.6321 15.3002 84.6393 11.6734 84.6373 8.04454Z" fill="white"/>
<path d="M82.1832 27.471C82.0633 27.471 81.9372 27.471 81.8111 27.471C80.7576 27.4319 79.7525 27.0215 78.9758 26.3133C78.1958 25.5279 77.6617 24.5348 77.4383 23.4542C77.1198 21.9152 76.9774 20.3453 77.0139 18.7746V7.77805H77.6289C78.1917 7.77805 78.4715 7.75972 79.0343 7.74139L79.6677 7.72306V18.7837C79.6365 19.909 79.7178 21.0345 79.9107 22.1438C80.002 22.6988 80.2481 23.2173 80.621 23.6405C80.9246 23.9512 81.3357 24.1357 81.7711 24.1567C82.8382 24.2331 83.2165 23.8146 83.4317 23.442C83.6993 22.9777 84.0191 21.8169 84.0191 18.9364V7.48786L84.588 7.4451C85.1569 7.40539 85.4429 7.384 86.0118 7.33513L86.676 7.2832V18.9884C86.7173 20.5858 86.5885 22.183 86.2916 23.7535C86.0913 24.8185 85.5626 25.7952 84.7786 26.5485C84.0651 27.1761 83.1356 27.5064 82.1832 27.471ZM78.2378 8.9785V18.7837C78.2014 20.2568 78.3324 21.7293 78.6283 23.1732C78.7952 24.0252 79.2064 24.8112 79.8123 25.4366C80.3859 25.9464 81.1246 26.2347 81.8941 26.2491C82.7767 26.3072 83.4471 26.1147 83.9483 25.6565C84.5471 25.0716 84.9471 24.3155 85.0923 23.4939C85.3682 22.0115 85.4878 20.5046 85.449 18.9975V8.61195H85.2491V18.9242C85.2491 21.5237 85.0093 23.1487 84.4988 24.0376C83.9391 25.009 82.995 25.4549 81.685 25.3633C80.9499 25.3226 80.2572 25.0085 79.7446 24.4836C79.2052 23.9074 78.8406 23.1916 78.6929 22.4187C78.4752 21.2166 78.3835 19.9954 78.4192 18.7746V8.9785H78.2378Z" fill="white"/>
<path d="M90.7874 27.5285L90.8058 7.47821L92.2788 7.31326C94.7389 12.7901 96.2304 18.7099 97.9709 24.4189C97.9709 18.4686 97.9791 12.5162 97.9955 6.56183L99.3762 6.36328C99.3619 13.8979 99.3506 21.4377 99.3424 28.9825L97.8663 28.7045C95.7445 22.9955 94.2592 17.0788 92.1804 11.3545C92.1804 16.812 92.1753 22.2695 92.165 27.7271C91.6146 27.6507 91.3378 27.611 90.7874 27.5285Z" fill="white"/>
<path d="M99.9545 29.7495L99.2226 29.609C98.6353 29.4929 98.3431 29.4379 97.7527 29.3279L97.4267 29.2485L97.3068 28.9247C96.1997 25.9496 95.2526 22.8767 94.3362 19.9045C93.8411 18.3039 93.3399 16.6697 92.7986 15.0416V28.4482L92.0883 28.3383L90.7198 28.1336L90.1909 28.0572L90.2094 6.93172L90.7567 6.87368C91.3441 6.80953 91.6393 6.77593 92.2267 6.70568L92.6756 6.65375L92.8601 7.06612C94.7544 11.2937 96.0952 15.8175 97.3806 20.2008V18.2184L97.3991 6.57128V6.04283L97.928 5.96647L99.3026 5.76792L100.01 5.66406V6.37273C100.01 10.2195 100.004 14.0632 99.9914 17.9038C99.9914 21.6019 99.9914 25.2989 99.9914 28.995L99.9545 29.7495ZM98.3247 28.1916L98.7275 28.268C98.7275 24.8204 98.7275 21.3707 98.7275 17.9191C98.7275 14.3106 98.7326 10.7021 98.7429 7.09361L98.5953 7.11499L98.5768 18.2337V24.4467L97.3714 24.6208C96.9931 23.3746 96.618 22.0977 96.2582 20.8606C95.0004 16.5628 93.6997 12.1184 91.8915 7.9886L91.4118 8.04359L91.4056 27.0003L91.5501 27.0217L91.5655 11.3609L92.7587 11.1532C93.7642 13.9267 94.6468 16.7828 95.4955 19.5441C96.375 22.394 97.2822 25.3356 98.3247 28.1764V28.1916Z" fill="white"/>
<path d="M104.355 30.0121C104.373 21.8665 104.389 13.7261 104.401 5.59067L105.831 5.35547C105.813 13.6762 105.797 21.9969 105.785 30.3176L104.355 30.0121Z" fill="white"/>
<path d="M106.4 31.076L105.656 30.9141L104.229 30.6087L103.74 30.5048V30.01C103.74 25.9372 103.748 21.8644 103.765 17.7916C103.781 13.7188 103.788 9.64605 103.786 5.57327V5.05399L104.3 4.97152L105.73 4.73632L106.449 4.61719V5.34112C106.449 9.50147 106.442 13.6608 106.428 17.8191C106.413 21.9774 106.405 26.1378 106.403 30.3001L106.4 31.076ZM104.973 29.5182L105.173 29.5609C105.173 25.6551 105.18 21.7473 105.195 17.8374C105.209 13.9276 105.216 10.0075 105.216 6.07728L105.013 6.11088C105.013 10.0085 105.007 13.9062 104.995 17.8038C104.982 21.7015 104.975 25.6063 104.973 29.5182Z" fill="white"/>
<path d="M110.235 18.3445C110.29 14.5935 110.336 10.6256 111.689 7.06394C112.612 4.64165 113.882 3.61531 115.379 3.3404C115.861 3.23054 116.365 3.25829 116.832 3.42043C117.299 3.58257 117.71 3.8725 118.018 4.25677C118.796 5.1426 119.386 6.64546 119.789 9.06469C120.241 12.0917 120.44 15.1505 120.386 18.2101C120.386 21.228 120.272 24.3834 119.728 27.4258C119.297 29.842 118.682 31.2593 117.883 32.0321C117.561 32.3733 117.151 32.6211 116.698 32.7491C116.246 32.8772 115.766 32.8806 115.312 32.7591C114.312 32.5331 113.417 31.9252 112.627 30.7614C111.837 29.5976 111.24 27.9878 110.834 25.758C110.399 23.3112 110.198 20.829 110.235 18.3445ZM111.698 18.4514C111.754 21.2952 111.788 24.3285 112.722 27.0867C113.402 29.0967 114.275 30.0741 115.312 30.2818C116.348 30.4895 117.277 29.8481 117.919 27.9145C118.934 24.863 118.953 21.3808 118.953 18.1643C118.979 15.7464 118.837 13.3296 118.528 10.931C118.242 9.00054 117.821 7.68707 117.264 6.85622C116.708 6.02538 116.077 5.73214 115.379 5.8421C114.383 5.99789 113.479 6.89593 112.799 8.71341C111.677 11.7039 111.637 15.2869 111.698 18.4484V18.4514Z" fill="white"/>
<path d="M116.01 33.4607C115.729 33.4588 115.45 33.426 115.176 33.363C113.946 33.088 112.959 32.3488 112.12 31.1087C111.28 29.8685 110.641 28.1243 110.232 25.8731C109.788 23.3851 109.582 20.8609 109.617 18.3344V18.2611C109.669 14.4398 109.727 10.4872 111.108 6.84915C112.03 4.42686 113.387 3.08284 115.259 2.73767C115.847 2.61158 116.459 2.65021 117.025 2.84924C117.592 3.04827 118.092 3.39988 118.47 3.86482C119.368 4.88199 119.977 6.50398 120.386 8.97208C120.933 12.2466 121.001 15.6341 121.001 18.2183C121.001 21.0163 120.911 24.3092 120.333 27.5409C119.894 29.9846 119.254 31.5669 118.319 32.4741C118.021 32.7844 117.663 33.0317 117.266 33.2013C116.869 33.3708 116.442 33.459 116.01 33.4607ZM115.976 3.89231C115.813 3.8942 115.65 3.91056 115.49 3.94118C114.586 4.10613 113.27 4.63152 112.264 7.27984C110.96 10.7193 110.905 14.562 110.853 18.2764V18.3466C110.817 20.7953 111.016 23.2418 111.446 25.6532C111.824 27.7333 112.369 29.2942 113.144 30.4244C113.799 31.3958 114.555 31.9517 115.453 32.1686C115.807 32.2678 116.183 32.2671 116.537 32.1668C116.891 32.0665 117.21 31.8704 117.458 31.6005C118.193 30.8887 118.737 29.4897 119.122 27.324C119.685 24.187 119.764 20.9583 119.771 18.2122C119.771 15.6769 119.712 12.3566 119.183 9.17063C118.814 6.96522 118.282 5.50513 117.553 4.66512C117.367 4.42533 117.128 4.23103 116.855 4.09708C116.581 3.96313 116.281 3.89309 115.976 3.89231ZM115.69 30.9315C115.522 30.9316 115.355 30.9142 115.192 30.8796C113.866 30.6138 112.867 29.4348 112.138 27.2813C111.197 24.5016 111.142 21.5387 111.086 18.6735V18.4627C111.025 15.2798 111.056 11.6204 112.224 8.50168C112.959 6.54063 113.989 5.44709 115.284 5.23633C116.265 5.0836 117.104 5.51429 117.778 6.51925C118.393 7.43563 118.848 8.85906 119.14 10.8384C119.455 13.2692 119.598 15.7188 119.571 18.1694C119.571 21.1599 119.571 24.8895 118.507 28.1121C117.753 30.3603 116.637 30.9315 115.69 30.9315ZM115.656 6.42761C115.595 6.42788 115.535 6.43299 115.475 6.44289C114.448 6.60783 113.765 7.88465 113.374 8.92627C112.283 11.8464 112.252 15.3684 112.313 18.4382V18.6521C112.366 21.4226 112.421 24.2908 113.301 26.8994C113.869 28.5795 114.586 29.5172 115.432 29.6883C115.724 29.7463 116.603 29.9235 117.335 27.7303C118.338 24.6788 118.338 21.0682 118.338 18.1664C118.364 15.7771 118.225 13.3888 117.919 11.0187C117.655 9.21951 117.271 7.96407 116.754 7.19737C116.33 6.56507 115.957 6.42761 115.656 6.42761Z" fill="white"/>
<path d="M124.383 34.4017C124.402 23.619 124.415 12.8373 124.423 2.05666L125.819 1.81229C128.572 10.7164 129.482 20.2559 131.115 29.4013V0.917298L132.376 0.71875C132.376 12.4361 132.376 24.1546 132.376 35.874C131.834 35.7885 131.564 35.7426 131.016 35.651C128.581 26.5361 127.563 17.0394 125.718 7.79317C125.718 16.7533 125.709 25.7134 125.69 34.6735L124.383 34.4017Z" fill="white"/>
<path d="M132.997 36.5926L132.283 36.4796C131.739 36.391 131.469 36.3482 130.921 36.2535L130.531 36.1894L130.429 35.8106C128.87 29.9855 127.871 23.9222 126.902 18.0604C126.714 16.9211 126.524 15.7664 126.327 14.6087V16.3712C126.327 22.4682 126.32 28.5662 126.305 34.6651V35.4105L125.574 35.2638C125.051 35.16 124.786 35.1081 124.264 34.9981L123.771 34.8973V34.3994C123.771 29.1516 123.778 23.9018 123.79 18.6499C123.79 13.1211 123.797 7.59031 123.811 2.05744V1.54732L124.316 1.45569L125.712 1.21132L126.247 1.11968L126.407 1.64813C128.381 8.03526 129.424 14.8103 130.432 21.3655C130.457 21.5152 130.478 21.6709 130.503 21.8176V21.2647C130.503 14.4835 130.503 7.7013 130.503 0.918079V0.3988L131.02 0.316326L132.29 0.120832L133 0.0078125L132.997 36.5926ZM131.518 35.1172L131.767 35.1569V1.4343H131.736C131.736 8.04239 131.736 14.6505 131.736 21.2586V29.4021L130.506 29.509C130.036 26.8729 129.617 24.1574 129.214 21.5335C128.243 15.2013 127.234 8.67367 125.386 2.50952L125.038 2.57061C125.038 7.93243 125.031 13.2932 125.017 18.653C125.017 23.744 125.011 28.8268 124.998 33.9015L125.075 33.9198C125.075 28.0672 125.083 22.2167 125.097 16.3682V7.79395L126.327 7.67482C126.994 11.0532 127.557 14.514 128.12 17.8649C129.058 23.5678 130.023 29.4632 131.518 35.1172Z" fill="white"/>
</g>
<defs>
<clipPath id="clip0_2_3">
<rect width="133" height="154" fill="white"/>
</clipPath>
</defs>
</svg>
